<svg width="30" height="30" viewBox="0 0 30 30" fill="none" xmlns="http://www.w3.org/2000/svg">
<g clip-path="url(#clip0_22_1511)">
<path fill-rule="evenodd" clip-rule="evenodd" d="M15.7708 4.23778L15.007 4.65402L14.2435 4.2374C14.3983 3.96786 14.6904 3.80095 15.0073 3.80103C15.3241 3.8011 15.6162 3.96816 15.7708 4.23778ZM22.1793 19.1263C22.0883 22.8449 18.8793 25.801 14.9932 25.801C11.0493 25.801 7.81885 22.7704 7.81885 18.9637C7.81885 17.9564 8.27592 16.5097 8.86383 15.0228C9.46841 13.4937 10.2695 11.7842 11.0636 10.1929C11.8589 8.599 12.6533 7.1112 13.2484 6.02264C13.5461 5.47806 13.7944 5.03268 13.9684 4.72306C14.0554 4.56824 14.1239 4.44731 14.1708 4.36486L14.2245 4.27058L14.2435 4.2374C14.2436 4.23727 14.2435 4.2374 15.007 4.65402C15.7708 4.23778 15.7707 4.23765 15.7708 4.23778L15.7898 4.27099L15.8435 4.36536C15.8903 4.44791 15.9588 4.56896 16.0458 4.72395C16.2199 5.03389 16.4681 5.47971 16.7658 6.02479C17.3609 7.11434 18.1553 8.60333 18.9505 10.198C19.7446 11.7901 20.5456 13.4999 21.1502 15.0282C21.7379 16.5141 22.1952 17.9594 22.1952 18.9637C22.1952 19.0193 22.1898 19.0736 22.1793 19.1263ZM20.4412 18.8349C20.4022 18.1683 20.0757 17.0535 19.5174 15.642C18.9382 14.1778 18.161 12.5165 17.3767 10.9439C16.5936 9.37373 15.8097 7.90427 15.2211 6.82657C15.1463 6.6896 15.0747 6.559 15.0066 6.43537C14.9388 6.55853 14.8674 6.68861 14.7928 6.82502C14.2042 7.90166 13.4203 9.36984 12.6373 10.9391C11.853 12.5108 11.0759 14.1716 10.4967 15.6364C9.90092 17.1432 9.56885 18.3139 9.56885 18.9637C9.56885 21.7858 11.9717 24.095 14.9932 24.095C18.0158 24.095 20.4313 21.7715 20.4313 18.9637C20.4313 18.9199 20.4347 18.8769 20.4412 18.8349Z" fill="#201D1D"/>
</g>
<defs>
<clipPath id="clip0_22_1511">
<rect width="30" height="30" fill="white"/>
</clipPath>
</defs>
</svg>
