<svg width="30" height="30" viewBox="0 0 30 30" fill="none" xmlns="http://www.w3.org/2000/svg">
<path fill-rule="evenodd" clip-rule="evenodd" d="M7.39294 9.15575C8.16811 8.80534 9.07707 9.16626 9.4186 9.94265L9.41984 9.94548L14.1764 20.8759C14.2119 20.9436 14.2729 20.9696 14.3105 20.9696H25.7528V20.954H26.5312C27.3814 20.954 28.0724 21.6452 28.0724 22.4956V25.4542C28.0724 26.3047 27.3814 26.9958 26.5312 26.9958H11.9399C11.0344 27.0511 10.0785 26.5732 9.67257 25.6221L3.90062 12.3634C3.55066 11.5882 3.91149 10.6793 4.68753 10.3377L4.68946 10.3369L7.39294 9.15575ZM26.5156 22.5268H14.3105C13.6334 22.5268 13.0435 22.1186 12.7671 21.5379L12.7614 21.526L8.00197 10.5889L5.33357 11.7547L11.1038 25.0095C11.2233 25.2906 11.5255 25.4656 11.8549 25.4408L11.8839 25.4387H26.5156V22.5268Z" fill="#201D1D"/>
<path fill-rule="evenodd" clip-rule="evenodd" d="M5.01195 3.69183C4.85748 3.33701 4.4447 3.17462 4.08997 3.32912L2.69119 3.93835C2.33646 4.09286 2.17411 4.50575 2.32857 4.86057L3.39135 7.30193C3.54581 7.65675 3.95859 7.81915 4.31333 7.66464L5.71211 7.05541C6.06684 6.9009 6.22919 6.48801 6.07473 6.13319L5.01195 3.69183ZM3.46846 1.90142C4.61148 1.40358 5.94156 1.92684 6.43927 3.07016L7.50205 5.51152C7.99976 6.65484 7.47663 7.98526 6.33361 8.4831L4.93483 9.09234C3.79181 9.59018 2.46174 9.06692 1.96402 7.9236L0.901245 5.48224C0.403533 4.33892 0.926661 3.0085 2.06968 2.51066L3.46846 1.90142Z" fill="#201D1D"/>
</svg>
