<svg width="31" height="31" viewBox="0 0 31 31" fill="none" xmlns="http://www.w3.org/2000/svg">
<path fill-rule="evenodd" clip-rule="evenodd" d="M6.61152 4.88538C6.61152 4.18208 7.18151 3.61194 7.88462 3.61194C8.58773 3.61194 9.15772 4.18208 9.15772 4.88538C9.15772 5.58867 8.58774 6.1588 7.88462 6.1588C7.1815 6.1588 6.61152 5.58867 6.61152 4.88538ZM7.88462 2C6.29148 2 5 3.29184 5 4.88538C5 6.19921 5.87789 7.30794 7.07892 7.65669V23.3433C5.87796 23.6921 5.00015 24.8008 5.00015 26.1146C5.00015 27.7082 6.29164 29 7.88477 29C9.4779 29 10.7694 27.7082 10.7694 26.1146C10.7694 24.8008 9.89149 23.692 8.69044 23.3433V16.3139H14.6854V23.3433C13.4844 23.6921 12.6066 24.8008 12.6066 26.1146C12.6066 27.7082 13.8981 29 15.4912 29C17.0844 29 18.3759 27.7082 18.3759 26.1146C18.3759 24.8008 17.498 23.692 16.2969 23.3433V16.3139H22.2758V23.3433C21.0749 23.6921 20.1971 24.8008 20.1971 26.1146C20.1971 27.7082 21.4886 29 23.0817 29C24.6748 29 25.9663 27.7082 25.9663 26.1146C25.9663 24.8008 25.0884 23.692 23.8874 23.3433V7.6567C25.0884 7.30796 25.9663 6.19923 25.9663 4.88538C25.9663 3.29184 24.6748 2 23.0817 2C21.4885 2 20.1971 3.29184 20.1971 4.88538C20.1971 6.19916 21.0749 7.30784 22.2758 7.65664V14.7019H16.2969V7.6567C17.4979 7.30796 18.3759 6.19923 18.3759 4.88538C18.3759 3.29184 17.0844 2 15.4912 2C13.8981 2 12.6066 3.29184 12.6066 4.88538C12.6066 6.19916 13.4844 7.30784 14.6854 7.65664V14.7019H8.69044V7.65665C9.89141 7.30786 10.7692 6.19917 10.7692 4.88538C10.7692 3.29184 9.47776 2 7.88462 2ZM7.88477 24.8412C7.18166 24.8412 6.61167 25.4113 6.61167 26.1146C6.61167 26.8179 7.18165 27.388 7.88477 27.388C8.58789 27.388 9.15787 26.8179 9.15787 26.1146C9.15787 25.4113 8.58788 24.8412 7.88477 24.8412ZM23.0817 3.61194C22.3786 3.61194 21.8086 4.18208 21.8086 4.88538C21.8086 5.58867 22.3786 6.1588 23.0817 6.1588C23.7848 6.1588 24.3548 5.58867 24.3548 4.88538C24.3548 4.18208 23.7848 3.61194 23.0817 3.61194ZM21.8086 26.1146C21.8086 25.4113 22.3786 24.8412 23.0817 24.8412C23.7848 24.8412 24.3548 25.4113 24.3548 26.1146C24.3548 26.8179 23.7848 27.388 23.0817 27.388C22.3786 27.388 21.8086 26.8179 21.8086 26.1146ZM14.2181 4.88538C14.2181 4.18208 14.7881 3.61194 15.4912 3.61194C16.1943 3.61194 16.7643 4.18208 16.7643 4.88538C16.7643 5.58867 16.1944 6.1588 15.4912 6.1588C14.7881 6.1588 14.2181 5.58867 14.2181 4.88538ZM15.4912 24.8412C14.7881 24.8412 14.2181 25.4113 14.2181 26.1146C14.2181 26.8179 14.7881 27.388 15.4912 27.388C16.1944 27.388 16.7643 26.8179 16.7643 26.1146C16.7643 25.4113 16.1943 24.8412 15.4912 24.8412Z" fill="#201D1D"/>
</svg>
