<svg width="31" height="31" viewBox="0 0 31 31" fill="none" xmlns="http://www.w3.org/2000/svg">
<path fill-rule="evenodd" clip-rule="evenodd" d="M15.5 3.59386C8.92841 3.59386 3.60523 8.87934 3.60523 15.4044C3.60523 17.5708 4.19173 19.6008 5.21414 21.3475L5.22196 21.3609L5.22183 21.3609C5.30314 21.5063 5.47914 21.6204 5.72414 21.6204H25.2598C25.4786 21.6204 25.6827 21.4974 25.7685 21.3497L25.7698 21.3475C26.7922 19.6008 27.3787 17.5708 27.3787 15.4044V14.7851C27.0546 8.54817 21.8624 3.59386 15.5 3.59386ZM28.9605 16.2013H29V15.4044C29 7.99907 22.9581 2 15.5 2C8.04186 2 2 7.99907 2 15.4044C2 17.8577 2.66425 20.1608 3.82279 22.1424C4.22411 22.8529 4.9765 23.2143 5.72414 23.2143H25.2598C26.0034 23.2143 26.7616 22.8281 27.1577 22.1484C28.1919 20.3815 28.8331 18.3585 28.9605 16.2013ZM21.4859 8.64956C21.8476 8.90393 21.9332 9.40131 21.677 9.76049L17.9368 15.0043C17.9333 15.0092 17.9298 15.014 17.9263 15.0188C18.3452 15.5104 18.5981 16.1458 18.5981 16.8388C18.5981 18.3947 17.3238 19.66 15.7568 19.66C14.1899 19.66 12.9156 18.3947 12.9156 16.8388C12.9156 15.283 14.1899 14.0177 15.7568 14.0177C16.0463 14.0177 16.3258 14.0609 16.5891 14.1411C16.6007 14.1214 16.6133 14.1021 16.6268 14.0831L20.367 8.83933C20.6232 8.48015 21.1241 8.39518 21.4859 8.64956ZM15.7568 15.6116C15.0764 15.6116 14.5208 16.1633 14.5208 16.8388C14.5208 17.5144 15.0765 18.0661 15.7568 18.0661C16.4372 18.0661 16.9929 17.5144 16.9929 16.8388C16.9929 16.1633 16.4372 15.6116 15.7568 15.6116Z" fill="#201D1D"/>
</svg>
