<svg width="31" height="31" viewBox="0 0 31 31" fill="none" xmlns="http://www.w3.org/2000/svg">
<path fill-rule="evenodd" clip-rule="evenodd" d="M4.26427 6.32583C3.91191 5.97338 3.91191 5.40194 4.26427 5.04949L7.37772 1.93524C7.73008 1.58279 8.30136 1.58279 8.65372 1.93524L10.287 3.56894C10.4408 3.72273 10.5274 3.91821 10.547 4.119C11.6791 3.61363 12.9338 3.33276 14.2548 3.33276H21.7617C23.9238 3.33276 25.6595 5.09412 25.6595 7.23158V28.0975C25.6595 28.5959 25.2556 29 24.7573 29H6.06222C5.56391 29 5.15995 28.5959 5.15995 28.0975V12.43C5.15995 10.8885 5.54206 9.43736 6.21682 8.16592C6.10041 8.12204 5.99124 8.05325 5.89755 7.95954L4.26427 6.32583ZM6.17827 5.68766L6.53555 6.04503L8.373 4.20711L8.01572 3.84974L6.17827 5.68766ZM6.96449 12.43C6.96449 8.39787 10.2237 5.13777 14.2548 5.13777H21.7617C22.9201 5.13777 23.855 6.08392 23.855 7.23158V23.332H6.96449V12.43ZM6.96449 25.137V27.195H23.855V25.137H6.96449ZM15.4269 12.0329C15.0954 12.0332 14.7908 12.2154 14.6335 12.5073L14.6265 12.5203L14.6078 12.5552L14.5383 12.6864C14.4787 12.7993 14.394 12.9613 14.2924 13.1592C14.0897 13.5542 13.8184 14.0951 13.5463 14.6752C13.2754 15.2527 12.9976 15.8819 12.7857 16.4504C12.5902 16.9751 12.3962 17.5847 12.3962 18.0616C12.3962 19.7333 13.7565 21.094 15.4278 21.094C17.0991 21.094 18.4594 19.7333 18.4594 18.0616C18.4594 17.5811 18.2662 16.9704 18.07 16.4432C17.858 15.8734 17.58 15.2444 17.309 14.6678C17.0368 14.0886 16.7654 13.5492 16.5626 13.1554C16.461 12.9582 16.3762 12.7968 16.3166 12.6843L16.247 12.5536L16.2283 12.5187L16.2213 12.5058C16.0635 12.2141 15.7585 12.0326 15.4269 12.0329ZM15.18 15.4419C15.2637 15.2634 15.3475 15.0885 15.4292 14.9206C15.5101 15.0866 15.5931 15.2594 15.6759 15.4357C15.9373 15.9917 16.1917 16.5699 16.3789 17.0729C16.5819 17.6186 16.6549 17.9465 16.6549 18.0616C16.6549 18.7364 16.1024 19.289 15.4278 19.289C14.7532 19.289 14.2007 18.7364 14.2007 18.0616C14.2007 17.9519 14.2729 17.6275 14.4766 17.081C14.6639 16.5783 14.9185 15.9993 15.18 15.4419Z" fill="#201D1D"/>
</svg>
