<svg width="31" height="31" viewBox="0 0 31 31" fill="none" xmlns="http://www.w3.org/2000/svg">
<path fill-rule="evenodd" clip-rule="evenodd" d="M11.183 4.61916C10.1537 4.61916 9.30523 5.45805 9.30523 6.4974V11.3226H18.1112V6.4974C18.1112 5.4679 17.2725 4.61916 16.2334 4.61916H11.183ZM9.30523 26.3807V12.9418H18.1112V26.3807H9.30523ZM7.68649 6.4974C7.68649 4.55748 9.26608 3 11.183 3H16.2334C18.1729 3 19.7299 4.58002 19.7299 6.4974V12.9092H23.6317V17.9772C23.6317 18.4368 23.9978 18.8029 24.4573 18.8029C24.9168 18.8029 25.2828 18.4368 25.2828 17.9772V10.9987H22.8063V6.52515L21.0522 4.77055C20.7361 4.45439 20.7361 3.9418 21.0522 3.62563C21.3682 3.30947 21.8807 3.30947 22.1968 3.62563L26.9016 8.33163V17.9772C26.9016 19.331 25.8108 20.4221 24.4573 20.4221C23.1038 20.4221 22.013 19.331 22.013 17.9772V14.5284H19.7299V26.3808H21.5921C22.0391 26.3808 22.4015 26.7433 22.4015 27.1904C22.4015 27.6375 22.0391 28 21.5921 28H5.80937C5.36237 28 5 27.6375 5 27.1904C5 26.7433 5.36237 26.3808 5.80937 26.3808H7.68649V6.4974ZM25.2828 9.00231V9.37954H24.425V8.14431L25.2828 9.00231Z" fill="#201D1D"/>
</svg>
