<svg width="31" height="31" viewBox="0 0 31 31" fill="none" xmlns="http://www.w3.org/2000/svg">
<path fill-rule="evenodd" clip-rule="evenodd" d="M11.2068 11.4779C11.3458 11.3777 11.5118 11.324 11.6821 11.324H19.9504C20.1676 11.324 20.3761 11.4115 20.5303 11.5675L22.3484 13.4059H23.508C23.9628 13.4059 24.3316 13.7817 24.3316 14.2454V20.7934C24.3316 21.257 23.9628 21.6328 23.508 21.6328H22.1822L20.0674 23.7585C19.9133 23.9133 19.7056 24.0002 19.4892 24.0002H11.1221C10.9058 24.0002 10.6982 23.9135 10.5442 23.7588L8.35355 21.5593C8.1964 21.4015 8.10791 21.1861 8.10791 20.9612V14.1446C8.10791 13.872 8.23779 13.6164 8.45621 13.459L11.2068 11.4779ZM11.9436 13.0029L9.75498 14.5794V20.6098L11.4595 22.3212H19.1514L21.2663 20.1956C21.4204 20.0407 21.6281 19.9539 21.8445 19.9539H22.6845V15.0849H22.0092C21.7919 15.0849 21.5835 14.9973 21.4292 14.8414L19.6112 13.0029H11.9436Z" fill="#201D1D"/>
<path fill-rule="evenodd" clip-rule="evenodd" d="M1.58545 13.0365C1.58545 12.5729 1.95416 12.197 2.40898 12.197H6.47725C6.93207 12.197 7.30078 12.5729 7.30078 13.0365V22.2876C7.30078 22.7513 6.93207 23.1271 6.47725 23.1271H2.40898C1.95416 23.1271 1.58545 22.7513 1.58545 22.2876V13.0365ZM3.23252 13.876V21.4481H5.65371V13.876H3.23252Z" fill="#201D1D"/>
<path fill-rule="evenodd" clip-rule="evenodd" d="M25.1548 13.0365C25.1548 12.5729 25.5235 12.197 25.9783 12.197H28.7619C29.2167 12.197 29.5854 12.5729 29.5854 13.0365V22.2876C29.5854 22.7513 29.2167 23.1271 28.7619 23.1271H25.9783C25.5235 23.1271 25.1548 22.7513 25.1548 22.2876V13.0365ZM26.8019 13.876V21.4481H27.9383V13.876H26.8019Z" fill="#201D1D"/>
<path fill-rule="evenodd" clip-rule="evenodd" d="M20.5163 6C20.9711 6 21.3398 6.37585 21.3398 6.83948V9.77768C21.3398 10.2413 20.9711 10.6172 20.5163 10.6172H11.441C10.9861 10.6172 10.6174 10.2413 10.6174 9.77768V6.83948C10.6174 6.37585 10.9861 6 11.441 6L20.5163 6ZM19.6928 7.67897L12.2645 7.67897V8.93819H19.6928V7.67897Z" fill="#201D1D"/>
</svg>
