<svg width="30" height="30" viewBox="0 0 30 30" fill="none" xmlns="http://www.w3.org/2000/svg">
<path fill-rule="evenodd" clip-rule="evenodd" d="M19.8921 4.53986C19.8949 3.89003 20.4397 3.36545 21.1089 3.36817L21.3767 3.36926C22.0459 3.37199 22.5861 3.90098 22.5833 4.5508L22.5701 7.61546C22.5673 8.26529 22.0225 8.78987 21.3533 8.78715L21.0856 8.78606C20.4163 8.78334 19.8761 8.25434 19.8789 7.60452L19.8921 4.53986ZM21.1148 2.00002C19.6674 1.99414 18.4891 3.12869 18.4831 4.53413L18.4794 5.39439H11.5189L11.5225 4.56044C11.5286 3.15501 10.3601 2.01091 8.91272 2.00502L8.64501 2.00393C7.19759 1.99804 6.01931 3.1326 6.01324 4.53803L6.00002 7.60269C5.99396 9.00813 7.16241 10.1522 8.60983 10.1581L8.87754 10.1592C10.325 10.1651 11.5032 9.03054 11.5093 7.6251L11.513 6.76256H14.2955V23.2352H11.5265L11.5301 22.4013C11.5361 20.9958 10.3677 19.8517 8.92027 19.8458L8.65255 19.8448C7.20513 19.8389 6.02685 20.9734 6.02079 22.3789L6.00757 25.4435C6.00151 26.8489 7.16996 27.993 8.61738 27.9989L8.88509 28C10.3325 28.0059 11.5108 26.8714 11.5169 25.4659L11.5206 24.6034H18.4815L18.4779 25.4399C18.4718 26.8453 19.6403 27.9894 21.0877 27.9953L21.3554 27.9964C22.8028 28.0022 23.9811 26.8677 23.9872 25.4623L24.0004 22.3976C24.0065 20.9922 22.838 19.8481 21.3906 19.8422L21.1229 19.8411C19.6755 19.8352 18.4972 20.9698 18.4911 22.3752L18.4874 23.2352H15.7046V6.76256H18.4735L18.4699 7.59879C18.4638 9.00422 19.6322 10.1483 21.0797 10.1542L21.3474 10.1553C22.7948 10.1612 23.9731 9.02663 23.9791 7.62119L23.9924 4.55653C23.9984 3.1511 22.83 2.007 21.3826 2.00111L21.1148 2.00002ZM8.6391 3.37208C7.96987 3.36936 7.42507 3.89394 7.42227 4.54376L7.40905 7.60842C7.40624 8.25825 7.9465 8.78724 8.61573 8.78996L8.88345 8.79105C9.55268 8.79377 10.0975 8.26919 10.1003 7.61937L10.1135 4.55471C10.1163 3.90489 9.57606 3.37589 8.90682 3.37317L8.6391 3.37208ZM21.117 21.2092C20.4478 21.2065 19.903 21.7311 19.9002 22.3809L19.8869 25.4456C19.8841 26.0954 20.4244 26.6244 21.0936 26.6271L21.3613 26.6282C22.0306 26.6309 22.5754 26.1064 22.5782 25.4565L22.5914 22.3919C22.5942 21.742 22.0539 21.213 21.3847 21.2103L21.117 21.2092ZM7.42981 22.3846C7.43262 21.7348 7.97741 21.2102 8.64665 21.2129L8.91436 21.214C9.5836 21.2167 10.1239 21.7457 10.121 22.3955L10.1078 25.4602C10.105 26.11 9.56023 26.6346 8.89099 26.6319L8.62328 26.6308C7.95404 26.6281 7.41379 26.0991 7.41659 25.4492L7.42981 22.3846Z" fill="#201D1D"/>
</svg>
